<svg xmlns="http://www.w3.org/2000/svg" width="90" height="90" fill="none"><g filter="url(#filter0_d)"><circle r="34.222" fill="#fff" stroke="#fff" stroke-width="1.556" transform="matrix(-1 0 0 1 45 40)"/><g clip-path="url(#clip0)"><path fill="#077891" d="M34.703 39.38l14.676-14.676a.878.878 0 0 1 1.245 0c.346.345.346.9 0 1.245l-14.05 14.05 14.05 14.05c.346.346.346.9 0 1.246a.886.886 0 0 1-.62.26.86.86 0 0 1-.618-.26L34.709 40.619a.876.876 0 0 1-.006-1.24z"/></g></g><defs><filter id="filter0_d" width="90" height="90" x="0" y="0" color-interpolation-filters="sRGB" filterUnits="userSpaceOnUse"><feFlood flood-opacity="0" result="BackgroundImageFix"/><feColorMatrix in="SourceAlpha" type="matrix" values="0 0 0 0 0 0 0 0 0 0 0 0 0 0 0 0 0 0 127 0"/><feOffset dy="5"/><feGaussianBlur stdDeviation="5"/><feColorMatrix type="matrix" values="0 0 0 0 0 0 0 0 0 0 0 0 0 0 0 0 0 0 0.2 0"/><feBlend in2="BackgroundImageFix" mode="normal" result="effect1_dropShadow"/><feBlend in="SourceGraphic" in2="effect1_dropShadow" mode="normal" result="shape"/></filter><clipPath id="clip0"><path fill="#fff" d="M0 0h31.111v31.111H0z" transform="matrix(-1 0 0 1 58.223 24.444)"/></clipPath></defs></svg>