<svg xmlns="http://www.w3.org/2000/svg" width="90" height="90" fill="none"><g filter="url(#filter0_d)"><circle cx="45" cy="40" r="34.222" fill="#fff" stroke="#fff" stroke-width="1.556"/><g clip-path="url(#clip0)"><path fill="#077891" d="M55.297 39.38L40.621 24.704a.878.878 0 0 0-1.245 0 .878.878 0 0 0 0 1.245l14.05 14.05-14.05 14.05a.878.878 0 0 0 0 1.246c.17.17.397.26.62.26.22 0 .449-.084.618-.26l14.677-14.676a.876.876 0 0 0 .006-1.24z"/></g></g><defs><filter id="filter0_d" width="90" height="90" x="0" y="0" color-interpolation-filters="sRGB" filterUnits="userSpaceOnUse"><feFlood flood-opacity="0" result="BackgroundImageFix"/><feColorMatrix in="SourceAlpha" type="matrix" values="0 0 0 0 0 0 0 0 0 0 0 0 0 0 0 0 0 0 127 0"/><feOffset dy="5"/><feGaussianBlur stdDeviation="5"/><feColorMatrix type="matrix" values="0 0 0 0 0 0 0 0 0 0 0 0 0 0 0 0 0 0 0.2 0"/><feBlend in2="BackgroundImageFix" mode="normal" result="effect1_dropShadow"/><feBlend in="SourceGraphic" in2="effect1_dropShadow" mode="normal" result="shape"/></filter><clipPath id="clip0"><path fill="#fff" d="M0 0h31.111v31.111H0z" transform="translate(31.777 24.444)"/></clipPath></defs></svg>