<svg xmlns="http://www.w3.org/2000/svg" width="25" height="25" fill="none"><g fill="#000" clip-path="url(#clip0)"><path d="M18.178 17.017c-.539 3.37-2.34 5.013-3.088 5.564l.493.672c.833-.612 2.83-2.43 3.417-6.104l-.822-.132z"/><path d="M18.178 17.017c-.539 3.37-2.34 5.013-3.088 5.564l.493.672c.833-.612 2.83-2.43 3.417-6.104l-.822-.132zM18.236 13.385l.827-.103a11.953 11.953 0 0 0-.14-.863l-.816.162c.05.257.095.528.13.804z"/><path d="M18.236 13.385l.827-.103a11.953 11.953 0 0 0-.14-.863l-.816.162c.05.257.095.528.13.804zM17.795 11.38l.791-.26a8.782 8.782 0 0 0-3-4.374l-.492.671a7.934 7.934 0 0 1 2.7 3.962z"/><path d="M17.795 11.38l.791-.26a8.782 8.782 0 0 0-3-4.374l-.492.671a7.934 7.934 0 0 1 2.7 3.962zM12.916 3.333h.834v.834h-.834v-.834z"/><path d="M12.916 3.333h.834v.834h-.834v-.834z"/><path d="M8.333 5a.417.417 0 0 0-.2.05c-.177.098-4.282 2.413-4.754 8.762a1.242 1.242 0 0 0 0 2.376c.471 6.349 4.577 8.666 4.755 8.761.06.034.13.051.2.051h7.5c.069 0 .138-.017.199-.05.177-.098 4.283-2.413 4.754-8.762a1.242 1.242 0 0 0 0-2.375c-.471-6.35-4.576-8.667-4.754-8.762a.417.417 0 0 0-.2-.051h-.417V2.5h1.628L20 5.583v4c0 .23.186.417.416.417h1.667c.23 0 .417-.187.417-.417V5.417a.416.416 0 0 0-.057-.209l-2.917-5a.417.417 0 0 0-.36-.208H7.5a.417.417 0 0 0-.417.417v1.666c0 .23.187.417.417.417h1.25V5h-.417zm7.385 19.167h-7.27c-.567-.355-3.775-2.599-4.222-7.917H19.94c-.446 5.298-3.657 7.56-4.221 7.917zm4.698-8.75H3.75a.417.417 0 0 1 0-.834h16.666a.417.417 0 0 1 0 .834zm-.476-1.667H4.227c.446-5.298 3.657-7.56 4.221-7.917h7.27c.567.355 3.776 2.599 4.222 7.917zM7.916.833h11.011l2.74 4.697v3.637h-.834v-3.75a.416.416 0 0 0-.116-.289l-3.194-3.333a.416.416 0 0 0-.301-.128H7.916V.833zM9.583 2.5h5V5h-5V2.5z"/><path d="M8.333 5a.417.417 0 0 0-.2.05c-.177.098-4.282 2.413-4.754 8.762a1.242 1.242 0 0 0 0 2.376c.471 6.349 4.577 8.666 4.755 8.761.06.034.13.051.2.051h7.5c.069 0 .138-.017.199-.05.177-.098 4.283-2.413 4.754-8.762a1.242 1.242 0 0 0 0-2.375c-.471-6.35-4.576-8.667-4.754-8.762a.417.417 0 0 0-.2-.051h-.417V2.5h1.628L20 5.583v4c0 .23.186.417.416.417h1.667c.23 0 .417-.187.417-.417V5.417a.416.416 0 0 0-.057-.209l-2.917-5a.417.417 0 0 0-.36-.208H7.5a.417.417 0 0 0-.417.417v1.666c0 .23.187.417.417.417h1.25V5h-.417zm7.385 19.167h-7.27c-.567-.355-3.775-2.599-4.222-7.917H19.94c-.446 5.298-3.657 7.56-4.221 7.917zm4.698-8.75H3.75a.417.417 0 0 1 0-.834h16.666a.417.417 0 0 1 0 .834zm-.476-1.667H4.227c.446-5.298 3.657-7.56 4.221-7.917h7.27c.567.355 3.776 2.599 4.222 7.917zM7.916.833h11.011l2.74 4.697v3.637h-.834v-3.75a.416.416 0 0 0-.116-.289l-3.194-3.333a.416.416 0 0 0-.301-.128H7.916V.833zM9.583 2.5h5V5h-5V2.5z"/></g><defs><clipPath id="clip0"><path fill="#fff" d="M0 0h25v25H0z"/></clipPath></defs></svg>