<svg xmlns="http://www.w3.org/2000/svg" width="20" height="20" fill="none"><path fill="#000" d="M12.877 10.32a.441.441 0 0 1 0-.64l6.849-6.849a.986.986 0 0 0 .274-.64.986.986 0 0 0-.274-.638L18.448.274a.987.987 0 0 0-.64-.274.83.83 0 0 0-.64.274l-6.848 6.85a.441.441 0 0 1-.64 0L2.831.273A.987.987 0 0 0 2.191 0a.987.987 0 0 0-.638.274L.274 1.553A.987.987 0 0 0 0 2.192c0 .182.091.456.274.639l6.85 6.85a.441.441 0 0 1 0 .639l-6.85 6.849a.987.987 0 0 0-.274.64c0 .182.091.456.274.639l1.279 1.278a.986.986 0 0 0 .639.274.986.986 0 0 0 .639-.274l6.85-6.85a.441.441 0 0 1 .639 0l6.849 6.85a.987.987 0 0 0 .64.274.986.986 0 0 0 .639-.274l1.278-1.278a.986.986 0 0 0 .274-.64.987.987 0 0 0-.274-.64l-6.85-6.848z"/></svg>