<svg xmlns="http://www.w3.org/2000/svg" width="16" height="20" fill="none"><path fill="#83A6FF" d="M9.657 15h-3.75a.6.6 0 0 0-.437.187.6.6 0 0 0-.188.438v3.75a.6.6 0 0 0 .188.438.6.6 0 0 0 .437.187h3.75a.6.6 0 0 0 .438-.188.598.598 0 0 0 .187-.437v-3.75a.598.598 0 0 0-.187-.438.599.599 0 0 0-.438-.187zM14.58 3.774a6.479 6.479 0 0 0-1.657-1.993A8.471 8.471 0 0 0 10.64.484 7.003 7.003 0 0 0 8.126 0C4.959 0 2.543 1.385.876 4.156a.616.616 0 0 0 .156.828l2.563 1.954a.748.748 0 0 0 .39.124c.188 0 .35-.083.485-.25.75-.937 1.307-1.536 1.672-1.797.448-.302 1.01-.452 1.687-.452.635 0 1.195.166 1.68.5.484.333.726.718.726 1.156 0 .489-.13.885-.39 1.187-.26.302-.698.594-1.313.875-.812.365-1.558.93-2.234 1.695-.678.766-1.016 1.581-1.016 2.446v.703c0 .198.054.393.164.586.11.193.242.289.399.289h3.75c.166 0 .312-.08.437-.242a.818.818 0 0 0 .188-.508c0-.26.143-.61.429-1.047a3.064 3.064 0 0 1 1.07-1.016c.407-.229.724-.413.954-.554.23-.14.528-.368.898-.68.37-.313.656-.623.86-.93.203-.307.385-.706.546-1.195.162-.49.243-1.016.243-1.578a5.12 5.12 0 0 0-.64-2.476z"/></svg>