<svg xmlns="http://www.w3.org/2000/svg" width="25" height="25" fill="none"><path fill="#000" d="M14.748 12.502a2.245 2.245 0 1 0 0 .005v-.005zm-2.246 1.326a1.325 1.325 0 1 1 0-2.65 1.325 1.325 0 0 1 0 2.65z"/><path fill="#000" d="M24.54 12.042h-2.227a9.833 9.833 0 0 0-9.35-9.35V.46a.46.46 0 0 0-.92 0v2.227a9.833 9.833 0 0 0-9.351 9.355H.46a.46.46 0 0 0 0 .92h2.227a9.833 9.833 0 0 0 9.355 9.35v2.228a.46.46 0 0 0 .92 0v-2.227a9.833 9.833 0 0 0 9.35-9.35h2.228a.46.46 0 0 0 0-.92zm-5.329.92h2.181a8.913 8.913 0 0 1-8.43 8.43v-2.18a.46.46 0 0 0-.92 0v2.18a8.913 8.913 0 0 1-8.43-8.43h2.181a.46.46 0 0 0 0-.92h-2.18a8.913 8.913 0 0 1 8.43-8.43v2.181a.46.46 0 0 0 .92 0v-2.18a8.913 8.913 0 0 1 8.43 8.43H19.21a.46.46 0 0 0 0 .92z"/></svg>