<svg xmlns="http://www.w3.org/2000/svg" width="25" height="25" fill="none"><path fill="#000" d="M23.387 4.791a3.613 3.613 0 0 0-2.547-3.464L16.652.02 8.468 0 4.159 1.327a3.613 3.613 0 0 0-2.546 3.464v8.112h3.226V25H20.16V12.903h3.226V4.791zm-3.226 4.08V7.564c0-.88.32-1.728.898-2.39l1.294-1.478c.142.34.227.708.227 1.095v4.886h-2.419v-.806zM15.322.806L12.5 4.57 9.677.806h5.645zm-6.793 0h.14l3.83 5.108L16.332.806h.14l.916.287L12.5 7.027 7.613 1.093l.916-.287zm-3.69 8.065v.806h-2.42V4.791c0-.387.086-.756.228-1.095l1.294 1.477a3.63 3.63 0 0 1 .898 2.39v1.308zm-2.42 3.226v-1.613h2.42v1.613h-2.42zm3.226 4.49l1.758 1.465.516-.62-2.274-1.895V13.36l6.596 5.497.517-.62-7.113-5.927v-2.175l13.71 11.424v2.175l-5.79-4.825-.517.62 5.596 4.663h-2.61l-7.308-6.089-.517.62 6.564 5.47H5.645v-7.607zm13.71 3.923L5.645 9.085V7.564c0-1.075-.39-2.113-1.098-2.921L3.088 2.975c.338-.4.783-.713 1.312-.878l2.382-.745L12.5 8.296l5.718-6.944 2.382.745a2.81 2.81 0 0 1 1.311.878l-1.459 1.667a4.434 4.434 0 0 0-1.097 2.922V20.51zm.806-8.413v-1.613h2.42v1.613h-2.42z"/><path fill="#000" d="M6.45 20.968v2.419h3.227v-2.42H6.45zm2.42 1.613H7.257v-.807H8.87v.807zm6.831-11.261v.537h-2.025c.022-.203.088-.395.198-.575.11-.183.326-.424.65-.724.26-.243.42-.407.478-.494a.632.632 0 0 0 .12-.353c0-.13-.035-.228-.105-.296a.382.382 0 0 0-.286-.105.385.385 0 0 0-.288.109c-.071.072-.112.193-.123.362l-.576-.058c.034-.318.142-.546.323-.685.18-.138.407-.207.678-.207.298 0 .532.08.701.24.17.16.255.36.255.599 0 .135-.024.265-.074.388-.048.122-.124.25-.23.385-.07.089-.196.217-.378.384a6.572 6.572 0 0 0-.348.333 1.035 1.035 0 0 0-.117.16h1.147zm.372-.263l.56-.068a.53.53 0 0 0 .144.327.394.394 0 0 0 .283.114c.12 0 .22-.046.3-.136a.524.524 0 0 0 .124-.366.49.49 0 0 0-.117-.346.374.374 0 0 0-.286-.127.998.998 0 0 0-.265.043l.063-.47c.157.003.276-.03.358-.101a.365.365 0 0 0 .123-.288.328.328 0 0 0-.09-.243.325.325 0 0 0-.24-.09.348.348 0 0 0-.253.103.483.483 0 0 0-.128.3l-.532-.09c.037-.183.092-.328.166-.437a.754.754 0 0 1 .313-.257c.134-.063.284-.094.45-.094.284 0 .511.09.683.271a.708.708 0 0 1 .211.502c0 .264-.144.475-.434.633.173.037.31.12.414.249a.719.719 0 0 1 .156.466c0 .265-.097.49-.29.677a.998.998 0 0 1-.722.28.996.996 0 0 1-.678-.235.928.928 0 0 1-.313-.617z"/></svg>